<?xml version="1.0" standalone="no"?>
<!DOCTYPE svg PUBLIC "-//W3C//DTD SVG 20010904//EN"
 "http://www.w3.org/TR/2001/REC-SVG-20010904/DTD/svg10.dtd">
<svg version="1.0" xmlns="http://www.w3.org/2000/svg"
 width="1024.000000pt" height="1024.000000pt" viewBox="0 0 1024.000000 1024.000000"
 preserveAspectRatio="xMidYMid meet">
<metadata>
Created by potrace 1.11, written by Peter Selinger 2001-2013
</metadata>
<g transform="translate(0.000000,1024.000000) scale(0.100000,-0.100000)"
fill="#000000" stroke="none">
<path d="M3 8736 c-4 -5 1 -14 10 -21 9 -7 14 -15 10 -18 -3 -4 1 -15 10 -25
10 -10 14 -22 10 -26 -4 -4 -1 -11 7 -16 8 -5 16 -13 16 -17 3 -20 29 -73 36
-73 4 0 8 -9 8 -20 0 -11 5 -20 10 -20 6 0 10 -9 10 -20 0 -11 5 -20 10 -20 6
0 10 -9 10 -20 0 -11 5 -20 10 -20 6 0 10 -9 10 -20 0 -11 5 -20 10 -20 6 0
10 -6 10 -13 0 -8 25 -62 55 -120 30 -59 51 -107 47 -107 -4 0 0 -5 8 -10 8
-5 15 -13 16 -17 1 -14 28 -68 37 -74 5 -3 8 -8 7 -10 -3 -7 24 -64 34 -70 5
-4 5 -12 2 -18 -4 -6 -3 -11 2 -11 5 0 17 -20 28 -45 10 -25 22 -45 26 -45 4
0 8 -7 8 -15 0 -9 11 -33 25 -55 14 -22 22 -40 19 -40 -4 0 1 -9 11 -20 10
-11 14 -20 10 -20 -4 0 -1 -8 8 -17 8 -10 16 -20 16 -23 3 -19 27 -70 33 -70
4 0 8 -9 8 -20 0 -11 5 -20 10 -20 6 0 10 -9 10 -20 0 -11 5 -20 10 -20 6 0
10 -6 10 -13 0 -18 24 -67 33 -67 4 0 7 -6 7 -13 0 -18 24 -67 33 -67 4 0 7
-7 7 -15 0 -17 17 -50 39 -77 8 -10 10 -18 6 -18 -4 0 0 -9 10 -20 10 -11 15
-20 11 -20 -3 0 1 -11 10 -25 9 -14 12 -25 8 -25 -5 0 -2 -5 6 -10 8 -5 16
-13 16 -17 3 -20 29 -73 36 -73 4 0 8 -6 8 -13 0 -21 30 -77 41 -77 6 0 8 -4
5 -9 -5 -7 56 -134 90 -189 8 -12 12 -26 9 -31 -2 -5 2 -11 10 -15 8 -3 15
-15 15 -26 0 -11 5 -20 10 -20 6 0 10 -9 10 -20 0 -11 5 -20 10 -20 6 0 10 -9
10 -20 0 -11 5 -20 10 -20 6 0 10 -9 10 -20 0 -11 5 -20 10 -20 6 0 10 -6 10
-13 0 -18 24 -67 33 -67 4 0 7 -6 7 -13 0 -18 28 -75 41 -82 5 -4 6 -11 3 -17
-4 -6 -2 -13 3 -17 12 -7 56 -89 59 -110 2 -8 8 -17 14 -21 7 -4 11 -10 11
-14 -2 -10 43 -101 51 -104 4 -2 8 -9 8 -16 0 -13 65 -142 82 -163 6 -7 7 -13
3 -13 -5 0 0 -9 10 -20 10 -11 15 -20 10 -20 -4 0 -1 -7 6 -16 7 -9 14 -23 16
-32 1 -9 7 -18 12 -20 14 -5 14 -39 0 -44 -5 -2 -12 -16 -13 -32 -2 -15 -10
-32 -17 -37 -8 -5 -11 -9 -6 -9 4 0 0 -11 -9 -25 -9 -14 -13 -25 -9 -25 5 0 1
-8 -7 -17 -19 -23 -58 -108 -58 -127 0 -8 -5 -18 -10 -21 -6 -3 -10 -15 -10
-26 0 -10 -4 -19 -10 -19 -5 0 -10 -13 -10 -30 0 -16 -3 -30 -8 -30 -7 0 -36
-57 -37 -73 0 -4 -7 -12 -15 -17 -8 -5 -11 -12 -7 -16 4 -4 0 -16 -10 -26 -9
-10 -12 -18 -8 -18 4 0 0 -9 -10 -20 -9 -10 -15 -26 -12 -34 3 -8 -1 -20 -8
-26 -8 -7 -13 -16 -10 -20 3 -4 -1 -13 -9 -19 -7 -6 -14 -23 -14 -38 0 -15 -5
-29 -11 -31 -6 -2 -11 -12 -11 -23 0 -10 -4 -19 -10 -19 -5 0 -10 -9 -10 -20
0 -11 -4 -20 -10 -20 -5 0 -10 -9 -10 -20 0 -11 -4 -20 -10 -20 -5 0 -10 -9
-10 -20 0 -11 -4 -20 -10 -20 -5 0 -10 -11 -10 -23 0 -25 -25 -83 -40 -92 -5
-3 -7 -12 -3 -21 3 -8 -2 -22 -10 -32 -9 -9 -16 -20 -16 -25 0 -4 -13 -31 -28
-60 -15 -28 -27 -54 -28 -57 0 -3 -7 -15 -14 -28 -7 -13 -10 -30 -7 -38 3 -8
-1 -17 -9 -20 -8 -4 -15 -15 -15 -25 0 -10 -4 -19 -10 -19 -5 0 -10 -11 -10
-24 0 -22 -37 -104 -52 -116 -3 -3 -8 -14 -10 -25 -1 -11 -10 -25 -18 -32 -8
-7 -11 -13 -6 -13 5 0 2 -8 -6 -17 -8 -10 -14 -25 -13 -33 1 -16 -25 -71 -39
-81 -5 -4 -6 -13 -4 -20 3 -8 -19 -61 -49 -118 -29 -57 -53 -110 -53 -117 0
-7 -9 -29 -20 -49 -11 -20 -20 -47 -20 -60 0 -14 -4 -25 -8 -25 -7 0 -33 -57
-29 -64 1 -1 -6 -10 -15 -20 -10 -10 -18 -24 -18 -32 0 -8 -5 -14 -12 -14 -6
0 -8 -3 -5 -7 4 -3 0 -17 -9 -31 -8 -13 -13 -26 -10 -29 3 -3 -6 -25 -19 -50
-14 -24 -25 -52 -25 -63 0 -10 -4 -22 -10 -25 -5 -3 -10 -15 -10 -26 0 -10 -4
-19 -10 -19 -5 0 -10 -9 -10 -20 0 -11 -4 -20 -10 -20 -5 0 -10 -9 -10 -20 0
-11 -4 -20 -8 -20 -9 0 -33 -56 -37 -84 -1 -11 -7 -22 -13 -24 -6 -2 -8 -10
-5 -18 3 -7 -2 -17 -11 -20 -10 -4 -15 -14 -12 -29 3 -13 -2 -29 -10 -36 -7
-6 -12 -15 -9 -19 3 -5 1 -11 -4 -15 -13 -7 -41 -64 -41 -82 0 -7 -4 -13 -10
-13 -5 0 -10 -9 -10 -20 0 -11 -4 -20 -10 -20 -5 0 -10 -13 -10 -30 0 -16 -4
-30 -10 -30 -5 0 -10 -9 -10 -19 0 -11 -5 -23 -10 -26 -6 -3 -10 -14 -10 -24
0 -17 -61 -143 -81 -167 -6 -7 -8 -17 -5 -23 3 -5 -1 -12 -10 -15 -8 -3 -14
-11 -12 -18 3 -18 -24 -88 -35 -88 -4 0 -7 -10 -5 -23 l3 -22 5115 0 c4998 0
5115 0 5118 19 2 10 0 21 -5 25 -13 9 -37 64 -34 79 1 8 -5 23 -15 33 -9 10
-13 19 -9 19 4 0 1 8 -7 18 -14 16 -30 48 -32 64 -1 4 -7 13 -13 19 -7 7 -13
21 -13 31 0 10 -4 18 -10 18 -5 0 -10 11 -10 24 0 14 -4 28 -10 31 -5 3 -10
15 -10 26 0 10 -4 19 -10 19 -5 0 -10 14 -10 30 0 17 -4 30 -10 30 -5 0 -10 9
-10 20 0 11 -4 20 -10 20 -5 0 -10 9 -10 20 0 11 -4 20 -10 20 -5 0 -10 8 -10
19 0 10 -7 24 -15 31 -8 7 -13 16 -10 20 3 4 -2 13 -11 20 -8 7 -12 20 -9 28
3 8 -2 23 -11 33 -10 11 -14 19 -10 19 3 0 -1 11 -10 25 -8 13 -13 28 -10 34
4 5 -1 16 -10 25 -8 9 -12 20 -9 26 3 5 2 10 -3 10 -5 0 -17 20 -28 45 -10 25
-22 45 -26 45 -4 0 -8 9 -8 19 0 11 -4 23 -10 26 -5 3 -10 14 -10 24 0 18 -13
47 -35 81 -5 8 -10 22 -11 30 -2 27 -26 80 -36 80 -5 0 -7 4 -3 9 3 5 -2 16
-10 24 -8 9 -15 23 -15 31 0 9 -5 16 -11 16 -5 0 -8 4 -4 9 3 5 -2 16 -10 24
-8 9 -15 25 -15 36 0 11 -9 36 -20 56 -11 20 -20 42 -20 49 0 7 -24 60 -53
117 -30 58 -53 113 -51 122 1 10 -4 21 -11 23 -8 3 -11 12 -8 20 3 8 1 14 -5
14 -11 0 -35 54 -36 81 -1 9 -6 22 -12 30 -13 17 -28 51 -26 61 1 3 -5 12 -13
18 -8 7 -15 18 -15 25 0 7 -6 18 -14 24 -8 7 -12 21 -9 31 3 11 0 26 -6 34
-22 26 -60 109 -55 118 3 5 -1 17 -9 26 -9 9 -15 19 -15 22 0 11 -26 60 -31
60 -4 0 -8 12 -9 26 -1 15 -7 33 -13 40 -6 8 -8 14 -4 14 4 0 2 7 -5 15 -21
25 -56 99 -71 149 -7 25 -17 46 -21 46 -4 0 -8 9 -8 19 0 11 -5 21 -10 23 -6
2 -12 14 -14 28 -4 36 -24 80 -36 80 -6 0 -9 4 -5 9 3 5 -6 30 -20 55 -14 25
-24 49 -23 53 1 4 -3 18 -10 31 -7 12 -10 22 -7 22 4 0 -1 7 -9 16 -9 8 -16
22 -16 30 0 8 -4 14 -10 14 -5 0 -10 11 -10 24 0 13 -13 49 -30 80 -16 31 -31
64 -32 74 -2 9 -18 45 -35 80 -18 34 -30 62 -27 62 3 0 -2 7 -11 16 -9 9 -14
23 -11 30 3 7 -2 20 -10 29 -8 8 -12 19 -9 25 3 6 -1 13 -9 16 -9 3 -16 12
-16 19 0 20 31 75 42 75 5 0 8 5 6 12 -3 7 10 39 29 71 18 32 33 65 33 73 0 8
3 14 8 14 7 0 32 48 32 63 0 5 9 21 19 36 11 15 21 34 23 42 2 8 7 17 11 20 5
3 9 12 11 20 1 8 11 30 21 49 11 19 20 37 20 40 0 3 9 21 20 40 45 83 65 126
65 138 0 6 3 12 8 12 8 0 32 49 32 67 0 7 5 13 10 13 6 0 10 9 10 20 0 11 5
20 10 20 6 0 10 9 10 20 0 11 5 20 10 20 6 0 10 9 10 20 0 11 4 20 8 20 6 0
27 41 36 70 1 3 10 21 21 40 11 19 19 38 20 42 0 4 6 13 13 19 6 7 12 21 12
31 0 10 3 18 8 18 8 0 32 49 32 67 0 7 5 13 10 13 6 0 10 9 10 20 0 11 5 20
10 20 6 0 10 9 10 20 0 11 5 20 10 20 6 0 10 9 10 19 0 10 7 22 16 25 8 3 12
11 8 17 -3 6 -1 15 5 19 7 4 13 14 15 22 1 9 8 23 15 32 7 9 11 16 7 16 -3 0
5 18 19 40 14 22 22 40 19 40 -4 0 1 9 11 20 10 11 14 20 10 20 -4 0 -2 8 6
18 22 27 39 60 39 77 0 8 5 15 10 15 6 0 10 9 10 20 0 11 3 20 8 20 8 0 32 49
32 67 0 7 5 13 10 13 6 0 10 9 10 20 0 11 4 20 8 20 5 0 15 18 22 41 8 23 20
43 27 46 7 3 13 13 13 22 0 9 5 22 12 29 7 7 9 12 5 12 -4 0 4 18 18 40 14 22
25 46 25 55 0 8 3 15 8 15 8 0 32 49 32 67 0 7 5 13 10 13 6 0 10 9 10 20 0
11 5 20 10 20 6 0 10 6 10 14 0 7 6 19 14 26 8 6 12 18 9 26 -3 8 0 14 6 14 6
0 11 9 11 19 0 11 5 21 11 23 5 2 11 10 12 18 2 8 7 22 12 30 24 39 115 226
115 237 0 7 3 13 8 13 8 0 32 49 32 67 0 7 5 13 10 13 6 0 10 8 10 19 0 10 7
24 15 31 8 7 12 16 9 21 -3 5 2 12 10 15 9 3 14 10 11 14 -3 5 2 16 11 24 8 9
13 16 10 16 -3 0 10 30 29 66 20 37 33 70 29 73 -10 10 -10225 7 -10231 -3z
m4654 -728 c56 -27 58 -41 58 -410 0 -323 -1 -338 -20 -364 -12 -15 -39 -34
-60 -41 -35 -12 -44 -12 -72 1 -68 32 -68 33 -69 406 -2 363 -2 359 55 407 28
23 61 24 108 1z m-703 -520 c213 -213 249 -254 251 -288 1 -34 -36 -89 -71
-106 -62 -30 -86 -13 -309 210 -110 111 -212 216 -227 234 -62 75 -15 171 85
172 l48 0 223 -222z m1655 188 c68 -73 60 -88 -210 -357 -185 -184 -235 -229
-263 -234 -88 -17 -159 92 -108 165 23 34 422 433 447 448 11 7 39 11 62 10
33 -1 49 -8 72 -32z m1086 -81 c89 -25 194 -114 232 -196 33 -70 37 -82 47
-133 3 -16 7 -30 10 -33 2 -2 -2 -30 -9 -61 -8 -31 -12 -58 -10 -60 7 -7 -42
-109 -66 -138 -13 -16 -178 -184 -366 -373 -189 -189 -342 -345 -341 -346 2
-2 26 -14 55 -29 59 -29 137 -100 147 -134 4 -12 11 -22 15 -22 5 0 19 -33 31
-72 25 -76 28 -154 10 -202 -5 -15 -10 -31 -10 -35 0 -8 43 -29 71 -35 33 -7
91 -38 124 -68 36 -31 95 -109 99 -131 2 -7 9 -25 16 -42 13 -30 19 -150 10
-215 -5 -33 -4 -35 45 -52 66 -24 94 -38 131 -65 33 -24 116 -136 112 -150 -1
-4 3 -17 9 -28 9 -17 23 -87 24 -120 2 -85 -44 -213 -95 -267 -14 -15 -26 -29
-26 -31 0 -4 -546 -550 -752 -753 -43 -41 -78 -80 -78 -85 0 -5 -4 -9 -9 -9
-4 0 -82 -73 -172 -163 -159 -157 -227 -217 -247 -217 -6 0 -12 -4 -14 -9 -4
-12 -157 -91 -175 -91 -7 0 -21 -4 -31 -9 -76 -39 -390 -58 -441 -27 -5 3 -26
8 -47 12 -20 3 -66 19 -101 35 -35 16 -68 29 -73 29 -6 0 -10 5 -10 10 0 6 -7
10 -15 10 -8 0 -15 3 -15 8 0 4 -12 13 -27 20 -42 19 -75 50 -532 505 -388
386 -426 427 -447 480 -12 31 -20 57 -18 57 3 0 -1 10 -8 23 -6 12 -13 29 -14
37 -1 8 -10 35 -19 60 -9 25 -19 52 -21 60 -7 29 -46 145 -55 162 -5 10 -9 27
-9 37 0 11 -4 23 -10 26 -5 3 -10 17 -10 30 0 13 -4 27 -10 30 -5 3 -10 17
-10 30 0 13 -4 27 -10 30 -5 3 -10 16 -10 29 0 12 -4 26 -9 32 -6 5 -12 22
-15 37 -3 16 -10 34 -15 41 -6 7 -8 16 -5 19 4 4 -1 18 -10 33 -10 14 -15 28
-12 31 3 3 1 14 -5 25 -6 11 -12 27 -14 36 -5 26 -66 205 -76 224 -5 10 -9 27
-9 37 0 11 -4 23 -10 26 -5 3 -10 15 -10 26 0 10 -4 27 -9 37 -5 9 -15 31 -21
49 -8 20 -123 143 -306 327 -263 263 -295 298 -296 328 -2 50 14 72 142 199
109 108 123 118 186 139 56 19 89 23 172 22 56 -1 107 -4 112 -7 6 -4 22 -8
35 -11 14 -2 35 -6 48 -8 24 -4 110 -32 142 -45 11 -5 45 -19 75 -31 112 -46
294 -165 360 -236 68 -74 120 -140 120 -153 0 -6 3 -11 8 -11 4 0 25 -28 47
-63 22 -34 43 -63 47 -65 5 -2 8 -7 8 -12 0 -4 30 -59 67 -121 36 -63 73 -127
81 -142 8 -16 20 -31 26 -33 6 -2 428 412 936 921 882 881 1013 1006 1075
1018 11 2 27 7 35 10 8 3 21 7 29 9 25 7 165 2 196 -7z"/>
<path d="M6503 7375 c-16 -7 -484 -467 -1040 -1024 -1055 -1054 -1017 -1019
-1088 -1011 -22 2 -75 37 -75 49 0 11 -142 270 -172 313 -10 14 -18 30 -18 34
0 5 -18 34 -40 65 -22 32 -40 62 -40 68 0 6 -4 11 -10 11 -5 0 -10 6 -10 13 0
10 -86 133 -124 177 -37 44 -187 149 -266 188 -60 29 -205 79 -254 86 -21 4
-50 9 -64 13 -44 11 -130 7 -159 -7 -15 -8 -51 -36 -80 -64 l-52 -49 252 -254
c267 -267 282 -283 271 -283 -3 0 -2 -6 4 -12 8 -10 198 -563 207 -603 1 -5 5
-17 8 -25 5 -12 190 -562 201 -595 1 -5 8 -28 14 -50 10 -33 63 -91 302 -330
159 -159 290 -293 290 -297 0 -5 3 -8 8 -8 4 0 68 -60 142 -133 104 -101 150
-139 200 -164 98 -47 143 -66 160 -66 8 0 20 -3 25 -7 18 -14 247 -4 305 13
50 14 125 51 205 102 38 25 1193 1178 1225 1225 34 48 34 146 0 193 -41 56
-98 86 -155 82 -34 -2 -115 -34 -115 -45 0 -15 -76 -41 -105 -36 -48 8 -85 58
-85 111 0 42 5 51 58 107 31 33 67 70 80 82 12 12 24 32 27 44 2 12 7 28 11
34 13 20 4 80 -17 123 -28 55 -79 87 -143 88 -63 1 -71 -1 -124 -36 -24 -16
-50 -30 -57 -31 -8 -1 -17 -5 -21 -9 -4 -3 -16 -1 -28 5 -11 6 -22 11 -23 10
-22 -15 -69 40 -77 89 -5 31 8 55 53 100 95 96 121 129 130 168 5 23 10 42 11
44 5 6 -41 112 -56 128 -30 33 -77 50 -137 50 -52 1 -63 -3 -102 -35 -56 -46
-82 -56 -120 -43 -83 28 -111 103 -63 171 13 16 234 242 493 501 508 507 502
500 488 590 -9 62 -29 92 -80 122 -52 30 -122 38 -170 18z"/>
<path d="M2559 1887 c-4 -7 -4 -397 1 -398 12 -3 5106 -5 5115 -2 7 2 10 74
10 201 l0 197 -2563 2 c-1409 1 -2563 1 -2563 0z"/>
</g>
</svg>
